<?xml version="1.0" encoding="UTF-8" standalone="no"?>
<!DOCTYPE svg PUBLIC "-//W3C//DTD SVG 1.1//EN" "http://www.w3.org/Graphics/SVG/1.1/DTD/svg11.dtd">
<svg width="100%" height="100%" viewBox="0 0 37493 15887" version="1.1" xmlns="http://www.w3.org/2000/svg" xmlns:xlink="http://www.w3.org/1999/xlink" xml:space="preserve" xmlns:serif="http://www.serif.com/" style="fill-rule:evenodd;clip-rule:evenodd;stroke-linejoin:round;stroke-miterlimit:2;">
    <path id="path2987" d="M1140.3,15467.5C698.937,15329.6 396.153,15066 186.104,14636.7L0,14256.3L0.06,8042.26L0.12,1828.21L205.284,1394.53C463.238,849.268 883.698,424.976 1395.26,193.709C2189.25,-165.24 3413.76,-8.922 4005.93,526.98C4157.77,664.392 4519.84,1139.91 4810.53,1583.69C5101.22,2027.47 5367.16,2424.19 5401.51,2465.28C5435.86,2506.38 5504.15,2615.1 5553.27,2706.89C5602.39,2798.67 5671.16,2907.39 5706.08,2948.49C5741.01,2989.59 6067.65,3481.88 6431.95,4042.48C6796.25,4603.08 7119.26,5093.38 7149.75,5132.05C7180.24,5170.71 7286.95,5328.87 7386.87,5483.52C7486.8,5638.17 7858.48,6200.71 8212.83,6733.62C8567.18,7266.54 8857.11,7730.48 8857.11,7764.61C8857.11,7798.74 8881.4,7837.21 8911.1,7850.1C8940.79,7862.99 9074.74,8047.51 9208.75,8260.15C9342.76,8472.79 9478.06,8678.4 9509.4,8717.06C9540.75,8755.72 9927.83,9340.93 10369.6,10017.5C10811.3,10694.1 11197.4,11279.3 11227.5,11318C11257.6,11356.6 11360.8,11505.2 11456.8,11648.1C11718.2,12037.4 12090.3,12219.9 12545.4,12182.2C13174.1,12130 13566.8,11690.9 13566.8,11040.2C13566.8,10489.5 13550.7,10470.1 11955,9112.17C9852.03,7322.5 9266.42,6571.9 8967.5,5282.99C8821.9,4655.19 8828.25,4200.79 8993.24,3440.02C9185.38,2554.06 9427.17,2090.02 10017,1475.33C10340.5,1138.12 11028.6,665.41 11387.7,533.585C11523,483.916 11697,416.041 11774.3,382.751C12197.6,200.539 13019.5,176.306 18764,176.681C22829,176.946 24866.8,201.518 25050.4,252.481C25409.7,352.242 25910,868.842 26019.8,1253.35C26181.5,1819.67 26098.4,2566.44 25835.8,2906.82C25672.8,3118.07 25399.5,3360.28 25200.6,3469.63C25023.7,3566.87 24672.3,3591.24 23021.4,3620.72L21053.2,3655.86L21053.2,7710.26C21053.2,11712.7 21055.1,11767.2 21200.1,11963.1C21520.3,12395.5 22030.9,12436.1 22400.1,12058.5C22520.3,11935.6 22877.8,11229 23297.1,10285.6C24082.3,8519.05 24281.4,8076.6 24594.8,7401.97C24715.3,7142.62 24813.9,6911.76 24813.9,6888.95C24813.9,6866.15 24956.3,6544.91 25130.3,6175.1C25304.2,5805.28 25446.6,5491.69 25446.6,5478.22C25446.6,5464.75 25554.3,5223.19 25685.9,4941.42C25817.6,4659.64 26035.6,4176.04 26170.5,3866.75C26305.4,3557.45 26524.2,3067.15 26656.9,2777.18C26789.5,2487.22 26974.8,2063.59 27068.6,1835.79C27290.7,1296.38 27874.7,689.739 28434.1,417.301C28831.4,223.813 28906.8,211.895 29734.6,211.672C30573.1,211.447 30632,221.066 31023.3,422.319C31794.9,819.159 31904,985.038 32971.7,3384.03C33502.8,4577.41 33987.7,5664.53 34049.2,5799.84C34279.2,6306.2 34727.5,7294.68 34824.8,7509.9C34880.3,7632.57 35026.7,7970.18 35150.1,8260.15C35377.6,8794.25 35523.9,9122.11 35902.8,9947.21C36018.2,10198.5 36214.7,10641.4 36339.5,10931.3C36464.2,11221.3 36674.1,11689.1 36805.7,11970.9C36937.4,12252.6 37045.2,12497 37045.2,12513.9C37045.2,12530.8 37145.5,12758.9 37268.1,13020.8C37638.4,13811.8 37549.8,14499.1 37007.7,15041.2C36663,15385.9 36333.2,15517.6 35815,15517.6C35374,15517.6 35015.2,15396.5 34735.7,15153.2C34644.6,15073.9 34357.1,14542.4 34096.7,13971.9L33623.2,12934.7L31063.8,12899.6C28226,12860.6 28301.4,12872.9 27813.3,12370.3C27514.2,12062.3 27389.5,11635.2 27426.9,11047C27460.4,10521.3 27679.2,10140.3 28112.3,9853.73C28548.9,9564.79 28832.6,9526.26 30525.4,9525.84C31477.4,9525.64 32124.6,9498.68 32124.6,9459.31C32124.6,9422.93 32001.6,9130.33 31851.4,8809.09C31701.2,8487.84 31515,8082.65 31437.6,7908.68C31360.3,7734.7 31233.8,7450 31156.5,7276.03C31079.1,7102.05 30946.1,6801.54 30860.8,6608.23C30775.5,6414.92 30633.2,6098.59 30544.6,5905.28C30393.5,5575.53 30275.9,5313.56 29873.9,4411.53C29725.3,4077.94 29594,3935.93 29594,4108.77C29594,4162.15 28876.1,5845.81 28438.3,6819.11C28221.4,7301.45 28030.1,7737.18 27589.6,8752.21C27447,9080.84 27274.4,9476.24 27206.2,9630.89C27137.9,9785.54 27034.1,10022.8 26975.6,10158.1C26834.5,10484.3 26651.4,10902.3 26498.4,11247.7C26429.8,11402.3 26211.1,11908.4 26012.4,12372.4C25813.6,12836.3 25608.7,13310.8 25557.1,13426.8C25309.7,13982.4 24355.9,14885.1 23759.5,15127.9C23624.2,15183 23410.2,15275.3 23283.8,15333C23157.5,15390.7 22775,15472.3 22433.8,15514.3C20279,15779.6 18381.1,14515 17719.5,12373C17578.9,11917.6 17573.6,11752.1 17573.6,7760.68L17573.6,3620.72L15258.5,3620.72C13969.8,3620.72 12865.6,3650.26 12768.1,3687.36C12604.8,3749.41 12443.7,4006.66 12338.7,4372.66C12213,4810.88 12823.5,5565.57 14061.7,6502.79C15736.8,7770.68 16361,8491.96 16768.7,9630.89C16953,10145.7 16969.9,10273.4 16968.4,11142.2C16967,11989.9 16946.9,12146.1 16780.6,12606C16173.6,14284.5 14343.7,15572.4 12568.8,15570.2C11561.9,15569 10709.9,15304.3 9782.84,14704.6C9228.54,14346 8810.25,13890 8224.09,13005C7993.61,12657.1 7780.19,12340.7 7749.82,12302.1C7719.46,12263.4 7593.24,12073.6 7469.32,11880.3C7345.41,11687 7219.21,11497.2 7188.87,11458.5C7105.98,11352.9 6411.21,10325.9 6071.38,9806.62C5906.92,9555.32 5743.15,9316.09 5707.47,9274.99C5671.78,9233.89 5601.93,9123.18 5552.25,9028.96C5502.57,8934.74 5441.13,8841.83 5415.71,8822.5C5390.29,8803.17 5055.63,8312.87 4672.02,7732.94C4288.42,7153.01 3957.79,6662.71 3937.3,6643.38C3916.8,6624.05 3805.43,6465.88 3689.81,6291.9L3479.58,5975.58L3444.44,10193.2C3409.42,14394.8 3408.69,14412 3251.78,14705.6C2880.36,15400.4 1973.53,15727.6 1140.31,15467.5L1140.3,15467.5Z" style="fill:white;fill-rule:nonzero;"/>
    <g id="Artboard1" transform="matrix(6.58573,0,0,3.5976,-3852.65,25899.1)">
        <rect x="585" y="-7199" width="5693" height="4416" style="fill:none;"/>
    </g>
</svg>
